<svg xmlns="http://www.w3.org/2000/svg" viewBox="0 0 34.92 35"><defs><style>.cls-1{fill:#fff;}</style></defs><title>Asset 9</title><g id="Layer_2" data-name="Layer 2"><g id="Layer_1-2" data-name="Layer 1"><path class="cls-1" d="M27.1,35H7.83A7.84,7.84,0,0,1,0,27.16V7.84A7.84,7.84,0,0,1,7.83,0H27.1a7.84,7.84,0,0,1,7.82,7.84V27.16A7.84,7.84,0,0,1,27.1,35ZM7.83,1.7A6.15,6.15,0,0,0,1.7,7.84V27.16A6.15,6.15,0,0,0,7.83,33.3H27.1a6.15,6.15,0,0,0,6.13-6.14V7.84A6.15,6.15,0,0,0,27.1,1.7Z"/><path class="cls-1" d="M22.3,26l-.07-.05s-1.51-1-2.62-1.88-2.47,1-3,.86S14.51,23.43,12,20.6c-2.34-3-3.33-4.83-3.41-5.3s2.06-1.54,1.37-2.79S8.57,9.6,8.57,9.6s0-.06,0-.08a3.21,3.21,0,0,0-.19-.45C7.83,8,7.18,8.26,7.18,8.26a19.54,19.54,0,0,0-3,1.21c-.55.32-.7.84-.68,1.82a39,39,0,0,0,5.9,10.62l0,0c.15.19.31.36.46.54l.44.55,0,0a39.36,39.36,0,0,0,9.41,7.67c1,.19,1.5.12,1.91-.36a19.62,19.62,0,0,0,1.72-2.8s.4-.59-.59-1.31A3.68,3.68,0,0,0,22.3,26Z"/><path class="cls-1" d="M23.38,4.23c-4.47,0-8.1,2.74-8.1,6.11,0,3,2.87,5.49,6.65,6l-1,2.06,2.92-2c4.25-.18,7.62-2.84,7.62-6.09S27.85,4.23,23.38,4.23Zm-3.85,7a.86.86,0,1,1,.85-.86A.87.87,0,0,1,19.53,11.2Zm3.85,0a.86.86,0,1,1,.85-.86A.86.86,0,0,1,23.38,11.2Zm3.85,0a.86.86,0,1,1,.86-.86A.86.86,0,0,1,27.23,11.2Z"/></g></g></svg>