<svg xmlns="http://www.w3.org/2000/svg" viewBox="0 0 39.02 25.68"><defs><style>.cls-1{fill:#e0b292;}.cls-2{fill:#fff;}</style></defs><title>Asset 3</title><g id="Layer_2" data-name="Layer 2"><g id="Layer_1-2" data-name="Layer 1"><path class="cls-1" d="M8.44,2,3.22,13.21a3.34,3.34,0,0,0-.33,1.45V23.5a2.07,2.07,0,0,0,1.93,2.18h2.3A2.07,2.07,0,0,0,9.05,23.5V20.61H30V23.5a2.07,2.07,0,0,0,1.93,2.18h2.3a2.07,2.07,0,0,0,1.93-2.18V14.66a3.34,3.34,0,0,0-.33-1.45L30.58,2a3.43,3.43,0,0,0-3.11-2H11.55A3.42,3.42,0,0,0,8.44,2Z"/><path class="cls-2" d="M30,12.87H9.07a1.21,1.21,0,0,1-1.18-1.66L11,4a1.28,1.28,0,0,1,1.18-.74H26.8A1.28,1.28,0,0,1,28,4l3.15,7.21A1.21,1.21,0,0,1,30,12.87Z"/><rect class="cls-2" x="11.98" y="15.93" width="15.06" height="2.35"/><circle class="cls-2" cx="6.87" cy="17.11" r="1.72"/><circle class="cls-2" cx="32.15" cy="17.11" r="1.72"/><ellipse class="cls-1" cx="2.89" cy="12.84" rx="1.86" ry="3.01" transform="translate(-10.14 10.99) rotate(-69.23)"/><ellipse class="cls-1" cx="36.13" cy="12.84" rx="3.01" ry="1.86" transform="translate(-2.21 13.64) rotate(-20.77)"/></g></g></svg>