<svg xmlns="http://www.w3.org/2000/svg" viewBox="0 0 36.11 38.36"><defs><style>.cls-1{fill:#fff;}.cls-2{fill:#8e8b7f;}</style></defs><title>Asset 4</title><g id="Layer_2" data-name="Layer 2"><g id="Layer_1-2" data-name="Layer 1"><rect class="cls-1" x="1.06" y="1.06" width="33.99" height="21.29" rx="1.45"/><path class="cls-2" d="M33.6,23.42H2.51A2.52,2.52,0,0,1,0,20.9V2.51A2.52,2.52,0,0,1,2.51,0H33.6a2.51,2.51,0,0,1,2.51,2.51V20.9A2.51,2.51,0,0,1,33.6,23.42ZM2.51,2.13a.39.39,0,0,0-.39.38V20.9a.39.39,0,0,0,.39.39H33.6A.39.39,0,0,0,34,20.9V2.51a.39.39,0,0,0-.39-.38Z"/><path class="cls-2" d="M1.06,17.77H35a0,0,0,0,1,0,0v3a1.27,1.27,0,0,1-1.27,1.27H2.33a1.27,1.27,0,0,1-1.27-1.27v-3a0,0,0,0,1,0,0Z"/><path class="cls-2" d="M33.49,38.36H3.67a1.71,1.71,0,0,1-1.67-2l1.78-8.86a1.71,1.71,0,0,1,1.67-1.38H31.71a1.71,1.71,0,0,1,1.67,1.38l1.78,8.86A1.7,1.7,0,0,1,33.49,38.36Z"/><rect class="cls-1" x="5.53" y="27.49" width="1.78" height="1.78" rx="0.51"/><rect class="cls-1" x="8.65" y="27.49" width="1.78" height="1.78" rx="0.51"/><rect class="cls-1" x="7.72" y="30.33" width="1.78" height="1.78" rx="0.51"/><rect class="cls-1" x="10.03" y="30.33" width="1.78" height="1.78" rx="0.51"/><rect class="cls-1" x="12.34" y="30.33" width="1.78" height="1.78" rx="0.51"/><rect class="cls-1" x="14.65" y="30.33" width="1.78" height="1.78" rx="0.51"/><rect class="cls-1" x="16.96" y="30.33" width="1.78" height="1.78" rx="0.51"/><rect class="cls-1" x="19.27" y="30.33" width="1.78" height="1.78" rx="0.51"/><rect class="cls-1" x="21.58" y="30.33" width="1.78" height="1.78" rx="0.51"/><rect class="cls-1" x="8.42" y="32.65" width="1.78" height="1.78" rx="0.51"/><rect class="cls-1" x="6.06" y="34.96" width="1.78" height="1.78" rx="0.51"/><rect class="cls-1" x="11.16" y="34.96" width="10.05" height="1.78" rx="0.51"/><rect class="cls-1" x="10.73" y="32.65" width="1.78" height="1.78" rx="0.51"/><rect class="cls-1" x="13.04" y="32.65" width="1.78" height="1.78" rx="0.51"/><rect class="cls-1" x="15.35" y="32.65" width="1.78" height="1.78" rx="0.51"/><rect class="cls-1" x="17.65" y="32.65" width="1.78" height="1.78" rx="0.51"/><rect class="cls-1" x="19.96" y="32.65" width="1.78" height="1.78" rx="0.51"/><rect class="cls-1" x="22.27" y="32.65" width="1.78" height="1.78" rx="0.51"/><rect class="cls-1" x="23.88" y="30.33" width="1.78" height="1.78" rx="0.51"/><rect class="cls-1" x="31.26" y="30.33" width="1.78" height="1.78" rx="0.51"/><rect class="cls-1" x="31.66" y="32.65" width="1.78" height="1.78" rx="0.51"/><rect class="cls-1" x="32.15" y="34.96" width="1.78" height="1.78" rx="0.51"/><rect class="cls-1" x="28.99" y="30.33" width="1.78" height="1.78" rx="0.51"/><rect class="cls-1" x="29.39" y="32.65" width="1.78" height="1.78" rx="0.51"/><rect class="cls-1" x="29.88" y="34.96" width="1.78" height="1.78" rx="0.51"/><path class="cls-1" d="M28,30.33H26.7a.51.51,0,0,0-.51.51v1.48a.32.32,0,0,1-.32.33h-.78a.5.5,0,0,0-.51.5v.77a.51.51,0,0,0,.51.51H28a.5.5,0,0,0,.5-.51V30.84A.5.5,0,0,0,28,30.33Z"/><rect class="cls-1" x="4.6" y="30.33" width="2.67" height="1.78" rx="0.51"/><rect class="cls-1" x="3.27" y="34.96" width="2.26" height="1.78" rx="0.51"/><rect class="cls-1" x="8.37" y="34.96" width="2.26" height="1.78" rx="0.51"/><rect class="cls-1" x="24.53" y="34.96" width="1.78" height="1.78" rx="0.51"/><rect class="cls-1" x="21.74" y="34.96" width="2.26" height="1.78" rx="0.51"/><rect class="cls-1" x="26.84" y="34.96" width="2.26" height="1.78" rx="0.51"/><rect class="cls-1" x="4" y="32.65" width="3.88" height="1.78" rx="0.51"/><rect class="cls-1" x="10.96" y="27.49" width="1.78" height="1.78" rx="0.51"/><rect class="cls-1" x="13.27" y="27.49" width="1.78" height="1.78" rx="0.51"/><rect class="cls-1" x="15.58" y="27.49" width="1.78" height="1.78" rx="0.51"/><rect class="cls-1" x="18.58" y="27.49" width="1.78" height="1.78" rx="0.51"/><rect class="cls-1" x="20.89" y="27.49" width="1.78" height="1.78" rx="0.51"/><rect class="cls-1" x="23.2" y="27.49" width="1.78" height="1.78" rx="0.51"/><rect class="cls-1" x="25.51" y="27.49" width="1.78" height="1.78" rx="0.51"/></g></g></svg>