<svg xmlns="http://www.w3.org/2000/svg" viewBox="0 0 20.33 17.04"><defs><style>.cls-1{fill:#675235;}</style></defs><title>Asset 5</title><g id="Layer_2" data-name="Layer 2"><g id="Layer_1-2" data-name="Layer 1"><path class="cls-1" d="M1.39,7.12H19a0,0,0,0,1,0,0v7.67A2.24,2.24,0,0,1,16.73,17H3.63a2.24,2.24,0,0,1-2.24-2.24V7.12A0,0,0,0,1,1.39,7.12Z"/><path class="cls-1" d="M18.94,6.46V5.74A14.76,14.76,0,0,0,10,3,15.08,15.08,0,0,0,1.35,5.55v.91Z"/><path class="cls-1" d="M.65,10.82V9.59a.67.67,0,0,1,.66-.66h1.4a1.24,1.24,0,0,0-1.1-.69H1.23A1.24,1.24,0,0,0,0,9.48v1.45a1.23,1.23,0,0,0,1.23,1.24h.38a1.24,1.24,0,0,0,1.1-.69H1.31A.66.66,0,0,1,.65,10.82Z"/><path class="cls-1" d="M19.68,9.59v1.23a.65.65,0,0,1-.66.66h-1.4a1.24,1.24,0,0,0,1.1.69h.38a1.23,1.23,0,0,0,1.23-1.24V9.48A1.24,1.24,0,0,0,19.1,8.24h-.38a1.24,1.24,0,0,0-1.1.69H19A.66.66,0,0,1,19.68,9.59Z"/><rect class="cls-1" x="9.78" y="2.17" width="0.73" height="1.46" rx="0.24"/><path class="cls-1" d="M15.63,7.24l-.49-.34,1.6-2.35a.31.31,0,0,0,.39-.1L19.7.7a.32.32,0,0,0-.08-.43L19.31.06a.3.3,0,0,0-.43.08L16.31,3.89a.29.29,0,0,0,0,.39L14.74,6.62l-.53-.36a.24.24,0,0,0-.34.06l-1.34,2a.24.24,0,0,0,.06.34L14,9.6a.25.25,0,0,0,.35-.06l1.34-2A.25.25,0,0,0,15.63,7.24Z"/></g></g></svg>