<svg xmlns="http://www.w3.org/2000/svg" viewBox="0 0 29.17 24.16"><defs><style>.cls-1{fill:#fff;}</style></defs><title>Asset 13</title><g id="Layer_2" data-name="Layer 2"><g id="Layer_1-2" data-name="Layer 1"><path class="cls-1" d="M8.73,8.05a4.45,4.45,0,1,0-5.21,0C1.44,10.29,0,15.1,0,20.69v3.47H12.24V20.69C12.24,15.1,10.8,10.29,8.73,8.05Z"/><path class="cls-1" d="M26.09,10.08a3.89,3.89,0,1,0-4.55,0c-1.82,1.95-3.08,6.16-3.08,11v3H29.17v-3C29.17,16.24,27.91,12,26.09,10.08Z"/><path class="cls-1" d="M17,14a2.81,2.81,0,1,0-3.3,0c-1.31,1.41-2.22,4.46-2.22,8v2.2h7.75V22C19.23,18.43,18.32,15.38,17,14Z"/></g></g></svg>