<svg xmlns="http://www.w3.org/2000/svg" viewBox="0 0 29.36 17.84"><defs><style>.cls-1{fill:#fff;}</style></defs><title>Asset 14</title><g id="Layer_2" data-name="Layer 2"><g id="Layer_1-2" data-name="Layer 1"><path class="cls-1" d="M27.77,3.67a1.59,1.59,0,0,0-1.59,1.59V2.43a1.6,1.6,0,1,0-3.19,0V1.6a1.6,1.6,0,1,0-3.19,0V7.49H9.56V1.6a1.6,1.6,0,1,0-3.19,0v.83a1.59,1.59,0,1,0-3.18,0V5.26A1.6,1.6,0,0,0,0,5.26v7.31a1.6,1.6,0,1,0,3.19,0v2.84a1.59,1.59,0,1,0,3.18,0v.83a1.6,1.6,0,1,0,3.19,0V10.36H19.8v5.88a1.6,1.6,0,1,0,3.19,0v-.83a1.6,1.6,0,1,0,3.19,0V12.57a1.59,1.59,0,1,0,3.18,0V5.26A1.59,1.59,0,0,0,27.77,3.67Z"/></g></g></svg>