<svg xmlns="http://www.w3.org/2000/svg" viewBox="0 0 34.92 35"><defs><style>.cls-1{fill:#fff;}</style></defs><title>Asset 10</title><g id="Layer_2" data-name="Layer 2"><g id="Layer_1-2" data-name="Layer 1"><path class="cls-1" d="M27.1,35H7.83A7.84,7.84,0,0,1,0,27.16V7.84A7.84,7.84,0,0,1,7.83,0H27.1a7.84,7.84,0,0,1,7.82,7.84V27.16A7.84,7.84,0,0,1,27.1,35ZM7.83,1.7A6.15,6.15,0,0,0,1.7,7.84V27.16A6.15,6.15,0,0,0,7.83,33.3H27.1a6.15,6.15,0,0,0,6.13-6.14V7.84A6.15,6.15,0,0,0,27.1,1.7Z"/><path class="cls-1" d="M22.43,28.64H12.5a6.16,6.16,0,0,1-6.16-6.16v-10A6.16,6.16,0,0,1,12.5,6.36h9.93a6.16,6.16,0,0,1,6.15,6.16v10A6.16,6.16,0,0,1,22.43,28.64ZM12.5,8.17a4.35,4.35,0,0,0-4.35,4.35v10a4.35,4.35,0,0,0,4.35,4.35h9.93a4.35,4.35,0,0,0,4.34-4.35v-10a4.35,4.35,0,0,0-4.34-4.35Z"/><path class="cls-1" d="M17.46,23.12a5.62,5.62,0,1,1,5.61-5.62A5.62,5.62,0,0,1,17.46,23.12Zm0-9.43a3.81,3.81,0,1,0,3.8,3.81A3.81,3.81,0,0,0,17.46,13.69Z"/><circle class="cls-1" cx="23.54" cy="11.25" r="1.13"/></g></g></svg>