<svg xmlns="http://www.w3.org/2000/svg" viewBox="0 0 13.39 14.99"><defs><style>.cls-1{fill:#2c4938;}</style></defs><title>Asset 7</title><g id="Layer_2" data-name="Layer 2"><g id="Layer_1-2" data-name="Layer 1"><path class="cls-1" d="M9.43,5.88a5.52,5.52,0,0,1,2.88,1.61,3.89,3.89,0,0,1,1.08,2.72q0,3.84-5.22,4.78l-.65-1.51a5.67,5.67,0,0,0,3.17-1.06,2.61,2.61,0,0,0,1.16-2.08c0-1.42-.94-2.41-2.83-3A14.08,14.08,0,0,1,6.45,12c.14.26.33.58.57.95l-1.3.87a6.3,6.3,0,0,1-.48-.72A5,5,0,0,1,2.4,14.36a2.22,2.22,0,0,1-1.71-.74A2.68,2.68,0,0,1,0,11.71a5.15,5.15,0,0,1,1-3A7.65,7.65,0,0,1,3.76,6.38c0-.51,0-1.23.11-2.15H1.27L1.19,2.71l2.86,0C4.14,1.93,4.28,1,4.47,0L6.08.25c-.15.54-.3,1.33-.47,2.36A37.93,37.93,0,0,0,11,2.05l.22,1.52c-1.91.28-3.85.48-5.8.59a9.33,9.33,0,0,0-.13,1.67,9.3,9.3,0,0,1,1.88-.18c.21,0,.43,0,.64,0,.13-.42.24-.82.32-1.2l1.53.27C9.6,5.22,9.51,5.6,9.43,5.88ZM4.55,11.61a14.4,14.4,0,0,1-.72-3.48A4.68,4.68,0,0,0,2.22,9.56a3.32,3.32,0,0,0-.66,2c0,.84.24,1.25.72,1.25A3.23,3.23,0,0,0,4.55,11.61ZM7.39,7.19H7a5.49,5.49,0,0,0-1.65.28,8.9,8.9,0,0,0,.44,2.86A11.9,11.9,0,0,0,7.39,7.19Z"/></g></g></svg>