<svg xmlns="http://www.w3.org/2000/svg" viewBox="0 0 34.92 35"><defs><style>.cls-1{fill:#fff;}</style></defs><title>Asset 11</title><g id="Layer_2" data-name="Layer 2"><g id="Layer_1-2" data-name="Layer 1"><path class="cls-1" d="M27.1,35H7.83A7.84,7.84,0,0,1,0,27.16V7.84A7.84,7.84,0,0,1,7.83,0H27.1a7.84,7.84,0,0,1,7.82,7.84V27.16A7.84,7.84,0,0,1,27.1,35ZM7.83,1.7A6.15,6.15,0,0,0,1.7,7.84V27.16A6.15,6.15,0,0,0,7.83,33.3H27.1a6.15,6.15,0,0,0,6.13-6.14V7.84A6.15,6.15,0,0,0,27.1,1.7Z"/><path class="cls-1" d="M27.67,26.9H7.25A2.22,2.22,0,0,1,5,24.68V10.32A2.22,2.22,0,0,1,7.25,8.1H27.67a2.22,2.22,0,0,1,2.21,2.22V24.68A2.22,2.22,0,0,1,27.67,26.9ZM7.25,9.66a.66.66,0,0,0-.65.66V24.68a.66.66,0,0,0,.65.66H27.67a.67.67,0,0,0,.66-.66V10.32a.67.67,0,0,0-.66-.66Z"/><path class="cls-1" d="M17.46,20.19a2.22,2.22,0,0,1-1.52-.6L5.28,9.45,6.35,8.32,17,18.46a.65.65,0,0,0,.9,0L28.57,8.32l1.07,1.13L19,19.59A2.2,2.2,0,0,1,17.46,20.19Z"/><polygon class="cls-1" points="28.57 26.68 19.51 18.07 20.58 16.93 29.64 25.55 28.57 26.68"/><polygon class="cls-1" points="6.35 26.68 5.28 25.55 14.34 16.93 15.41 18.07 6.35 26.68"/></g></g></svg>