<svg xmlns="http://www.w3.org/2000/svg" viewBox="0 0 218.72 307.06"><defs><style>.cls-1{fill:#9b8b7e;}.cls-19,.cls-2{fill:#e0dcdc;}.cls-11,.cls-2{stroke:#bca7a8;}.cls-11,.cls-17,.cls-18,.cls-2,.cls-3,.cls-4,.cls-5,.cls-6,.cls-8{stroke-linecap:round;stroke-linejoin:round;stroke-width:0.24px;}.cls-3{fill:#ce956a;stroke:#976742;}.cls-4{fill:#e8e4e2;}.cls-17,.cls-4{stroke:#d8cdbf;}.cls-5{fill:#f9f5ef;}.cls-5,.cls-6{stroke:#a19e9b;}.cls-11,.cls-17,.cls-6{fill:none;}.cls-7{fill:#fad2c6;}.cls-8,.cls-9{fill:#413118;}.cls-8{stroke:#413118;}.cls-10{fill:#c65f56;}.cls-12{fill:#9ecbe0;}.cls-13{fill:#f8e6cc;}.cls-14{fill:#d8ad89;}.cls-15{fill:#42311a;}.cls-16{fill:#d8726c;}.cls-18{fill:#f4eeea;stroke:#ddd3c8;}</style></defs><title>Asset 1</title><g id="Layer_2" data-name="Layer 2"><g id="Layer_1-2" data-name="Layer 1"><path class="cls-1" d="M167.15,255.23c-2.82-1.57-5.77-6.82-5.86-7.68s-1.55-2.59-4.39-5.87-1.47-.09-4.05-3.89-5-8-2.76-8.89,8.36.69,8.36.69,6.72,6.56,7.23,9.93,1.47,9,1.47,9a21.45,21.45,0,0,1,1.81,4.4C169,254,167.92,255.66,167.15,255.23Z"/><path id="잠바뒤" class="cls-2" d="M129.88,91.81l7.81.69s3.1,1.61,3.33,2.42,4.94-.69,5.4-.69a9.1,9.1,0,0,0,3.67.8c2.88.12,6.21.46,6.21.46s2.75.69,2.41,2-3.1,6.9-4.83,8.75a54.55,54.55,0,0,0-5.85,8.51c-.46,1.16-1.15,2.77-.12,3.57s2.76-.23,2.76-.23a4,4,0,0,1,1.38,3.8c-.46,2.42-9,20.49-9.65,24.06s-8.61,10-8.61,10-21.94-23.82-22.74-24.52-13.9-12.08-13.9-16.57S129.88,91.81,129.88,91.81Z"/><path id="그림자" class="cls-1" d="M113.14,128.33c-.6,1.51,10.55,5.78,10.55,5.78l-7.75-.39-9.17-6.13-3.92-7.29-.91-5.83.26-5.27,2.28-2.11,3.49,7.08a7.13,7.13,0,0,1,2.16,2.16C110.77,117.53,113.14,128.33,113.14,128.33Z"/><path id="상의" class="cls-3" d="M104,110.28c.52.06,1.09,0,1.38.64a16.07,16.07,0,0,0,.92,2.13c.29.34.75,1.26,1.09,1.38a17.09,17.09,0,0,1,1.78,1.09l-3.1.06a6,6,0,0,0-1.21.57l7.76,13.18,1.14.06,2.47.58s-1.89-5.18-2.12-5.76-1.21-2.13-1.61-3-2.24-5-2.18-5.58c0,0-.69-.12-.75-.41s-.17-.73-.34-.82a1.73,1.73,0,0,1-.55-.67c-.2-.35-.46-.43-.63-.71a6.8,6.8,0,0,1-.44-.66,11.18,11.18,0,0,1-1.47-2.24,2.27,2.27,0,0,0-.9-1.21l-1.35.16Z"/><path id="기띠2" class="cls-4" d="M105.73,109s0,2.07,1.12,2.67a26.14,26.14,0,0,1,4.65,3.46c.52.69,2.33,3.36,3.45,4.57s6.8,8.89,7,9.24,5.77,6.22,7,7.6a53.1,53.1,0,0,0,5.17,4.4,33.61,33.61,0,0,1,3.45,2.68,5.74,5.74,0,0,0,2.24,1.38l2.75-6.74-1.29-2s-5.17-6.48-6.29-7.69-7.32-7.16-7.75-7.85-5.77-5.27-6.29-6.13a12.42,12.42,0,0,0-2.32-2.42,33.19,33.19,0,0,1-2.24-2.93C116.07,109,105.73,109,105.73,109Z"/><g id="나경잠"><path class="cls-5" d="M153.71,232.31a2,2,0,0,1,.39,1.29l.53.28c1.75,1.64.5,3,.5,3,0,.22,0-.17.56,0a10.3,10.3,0,0,1,1.47.77,4.11,4.11,0,0,1,1.29,1.3c.17.34.47,1,.47,1a8.69,8.69,0,0,0,1.08,0c.47,0,2.2,1.38,2.63,2l1.71,3.93a13.16,13.16,0,0,1,.91,2.7v1.39c0,1-.17-.23.41,1.38s.74,1.78.63,2.41-.86,3.86-3.51,3.74-14.7.18-18.14-.92a33.12,33.12,0,0,1-7.06-2.93c-1.56-.92-3.56-2-3.56-2S127.7,253.93,127,249s-2.47-4.89-1.09-8.69,1-6,2.18-8.11,2.24-6.16,3-7.72,2.07-2.18,4.59-2,10.11,3.51,11.83,4.83,3.39,1.15,4.42,2a4,4,0,0,1,1.27,2.13Z"/><path class="cls-6" d="M156.47,251.65a28.44,28.44,0,0,0-7.07-6.13,1.26,1.26,0,0,1-.6-.48"/><path class="cls-6" d="M148.46,251a7.08,7.08,0,0,0-2.63-1"/><path class="cls-6" d="M145.1,245.21c0,.13.6,3,.69,3.59"/><path class="cls-6" d="M155.52,242.71a3.24,3.24,0,0,0-1.21-1.38c-.47-.22-.86-.09-1.29-.47s-.56-.52-.51-.7"/><path class="cls-6" d="M162.15,253.63s-1.63-5.13-3-6.78"/><path class="cls-6" d="M139.84,233c.52.9.43.25.48.69"/><path class="cls-6" d="M132.78,230.8c.69.47.26.56,1.29.77a1.62,1.62,0,0,0,1.81-.6c.35-.39.6-.09,1.12-.65s.91-.52,1.34-.17.25.6.86,0a2.91,2.91,0,0,1,1.46-1,9.82,9.82,0,0,1-.6.95"/><path class="cls-6" d="M134.89,231.88a2,2,0,0,1-.09,1.12c0,.3-.08.69-.08.69A3.26,3.26,0,0,1,134,233"/><path class="cls-6" d="M141.78,243.92c.69-.26.26.22,1-.35s.22.22,1.12.18,1.38-.35,1.47-.95.08.26.08-.61"/><path class="cls-6" d="M146.69,234.64a6.79,6.79,0,0,0,2.46,1.55c.81.26,1.33,1,2.28.26a8.19,8.19,0,0,0,1.33-1.21"/><path class="cls-6" d="M130.71,241.33c1.34.86,1.51,1.12,2.29,1.64a23.46,23.46,0,0,0,2.41,1.25,5.3,5.3,0,0,0,1.81.82c.56.05,1.2.13,1.89.22a5.85,5.85,0,0,1,1.47.47"/><path class="cls-6" d="M130.71,244.39a2.39,2.39,0,0,1,1.86,1c.25.52-.22.6.73,1.51s.94.69,1.38,1.51.38,1,.9,1.21"/></g><path id="얼굴" class="cls-7" d="M153.82,68.35s1.38,6.71-6.81,7.4c0,0,3.86-3.41,3.43-4.83,0,0-.3,4.1-9.35,4a12.21,12.21,0,0,1-2.15,0c-.17-.12,9.43-5.39,8.35-7.81,0,0-11.32,10.49-19,7.34,0,0-9.39-.17-16.88-11,0,0-6.72-4.23-5.51-6.65,0,0-6.87,8-7,11.16a12.35,12.35,0,0,1,.2-3,8,8,0,0,0-.83,2.47s-1.41-1.61-.92-2.5a9.27,9.27,0,0,0-.78,2c0,.4-.37-2.91.18-3.4,0,0-1.38,2.73-1.3,3.28,0,0,0-3.6.26-3.91,0,0-.69,1.09-.57,1.35,0,0-1.12-.56.3-7.21a9.78,9.78,0,0,0-.92,2.33,23.32,23.32,0,0,0-.2-4.19c-.3-.69-4.74-6.21-5.47-8.07a4.39,4.39,0,0,1-1-4.29.88.88,0,0,1,0-.15s-1.59,2-1.21,2.89c0,0-1.33-2.59-.86-3,0,0-.47,1.34-.08,1.68,0,0-2-1.48-1.51-3.19,0,0,0-.09,0-.13s-10.58,3-1.68,22.87a2.53,2.53,0,0,0,.22.41.72.72,0,0,1,.08.8s-2.71,6.61-3.66,6.78S77.82,79,77.82,79s21.63,37.73,23.86,37.21,4-4.92,2.68-7.08c0,0,13.69,5.53,16.62-4.32a4.73,4.73,0,0,1,3.1-2.15c1.9-.18,2-1.64,2-1.64a12.75,12.75,0,0,0,2.24-1.64,4.32,4.32,0,0,1,.93-1.88,4.51,4.51,0,0,0,3.66,1.68,4.27,4.27,0,0,0,4-3.28A31.75,31.75,0,0,0,138,91.55a12.9,12.9,0,0,0,5-4.06c1.92-2.76.5-1.72,2.2-4.79A9.62,9.62,0,0,0,146.33,79a29.91,29.91,0,0,1,3.16-3.41C150.14,75.21,153.82,68.35,153.82,68.35Z"/><path id="헤어" class="cls-8" d="M78.86,40.1A7.47,7.47,0,0,0,78.43,43c0-.69.77-1,.77-1a6.54,6.54,0,0,1-1.46,3.72l1.38-.44a6.7,6.7,0,0,0-1.64,4.32c.43-.26.49-1.5.49-1.5v1a9,9,0,0,1-1.09,3,3.36,3.36,0,0,0,1-.23c-.34.29-.46,2.82-.46,2.82-.06-.29.52-.52.52-.52a10.4,10.4,0,0,0-.23,2.31c0-.29.69-.87.69-.87a10.83,10.83,0,0,1-.81,2.54,7.2,7.2,0,0,0,1.73-.81c-.81.69-.41,3.11-.41,3.11a3.33,3.33,0,0,1,.35-.87,9.36,9.36,0,0,0,.46,2.71c-.29-.58.34-1.9.34-1.9-.46.92.75,5.47.75,5.47.4-.12.23-2.25.23-2.25.57.23.26,4.65.26,4.65.87-.56,1.36-3,1.53-3.37a.72.72,0,0,0-.08-.8,2.53,2.53,0,0,1-.22-.41c-8.9-19.89,1.68-22.87,1.68-22.87s0,.08,0,.13c-.46,1.71,1.51,3.19,1.51,3.19-.39-.34.08-1.68.08-1.68-.47.43.86,3,.86,3-.38-.86,1.21-2.89,1.21-2.89a.88.88,0,0,0,0,.15,4.39,4.39,0,0,0,1,4.29C89.58,49,94,54.51,94.32,55.2a23.32,23.32,0,0,1,.2,4.19,9.78,9.78,0,0,1,.92-2.33c-1.42,6.65-.3,7.21-.3,7.21-.12-.26.57-1.35.57-1.35-.28.31-.26,3.91-.26,3.91-.08-.55,1.3-3.28,1.3-3.28-.55.49-.15,3.8-.18,3.4a9.27,9.27,0,0,1,.78-2c-.49.89.92,2.5.92,2.5A8,8,0,0,1,99.1,65a12.35,12.35,0,0,0-.2,3c.14-3.19,7-11.16,7-11.16-1.21,2.42,5.51,6.65,5.51,6.65,7.49,10.79,16.88,11,16.88,11,7.67,3.15,19-7.34,19-7.34,1.08,2.42-8.52,7.69-8.35,7.81a12.21,12.21,0,0,0,2.15,0c9,.13,9.35-4,9.35-4,.43,1.42-3.43,4.83-3.43,4.83,8.19-.69,6.81-7.4,6.81-7.4,1,4-2.86,7.57-2.86,7.57,23.77.18,16.28-33.41,16.28-33.41,5.34-17.52-11-25.89-11-25.89C139.5-5.23,130,4.18,130,4.18c3.19-7.85-12.31-1.89-12.31-1.89C105-1,97.38,6.86,97.38,6.86,88.12,14,83.88,19.29,81.61,24.39c-3.63,8.18-4.9,8-4.9,8A3.8,3.8,0,0,0,78.77,31s-.43,6.47-.08,7.08a1.37,1.37,0,0,1,.47-.78,25.38,25.38,0,0,1-1,2.76Z"/><g id="눈"><path id="눈1안" class="cls-8" d="M116.44,74.2A9.22,9.22,0,0,1,122,77.07c1.14,1,5.62,2.68,7.12,1.5a5.43,5.43,0,0,1-7.21.15,19.46,19.46,0,0,1-2.58-2.45A10.82,10.82,0,0,0,116.44,74.2Z"/><path class="cls-9" d="M139.76,78.9a2.68,2.68,0,0,1,3.08,0c1.94,1,3,.37,3.14.24a3.59,3.59,0,0,1-4,1A15.58,15.58,0,0,0,139.76,78.9Z"/></g><path id="입술" class="cls-10" d="M124.08,102.69c1.9-.18,2-1.64,2-1.64s.77-.48,1.41-.92c0,0-2.7.56-3.45-.41s-2.94.46-8-2c0,0-2.21-.88-2.56-1.74a14.08,14.08,0,0,0,7.21,6.47A9,9,0,0,0,124.08,102.69Z"/><path id="잠1선" class="cls-11" d="M61.06,88.1s-.35,2.24,2,5.55a3.47,3.47,0,0,1,.44,3s-.27,1.88,6.19,9.51a21.49,21.49,0,0,1,2.16,3.41s.16,1.08,4.87,4.76a36.7,36.7,0,0,0,9.85,8.37s5,3.53,8.26,5.5a119.21,119.21,0,0,1,9.54,30s4.71,14.51,5.86,15.66c.31.31-.16,1.91.21,4,.48,2.78,2.43,25.34,2.32,26.15s.69,9.55.86,10.13-.29,4.43,0,8.11,1.32,7.83,1,8.86c0,0,4.14,1.33,8,8.29,0,0,6.09,3.86,8.21,6.56"/><path id="나머리" class="cls-9" d="M181.87,136.09a10.17,10.17,0,0,1-.11,2.65s-1.66,3.74-1.58,4.35,6.92.2,8.27.2a1.77,1.77,0,0,0,.84-.61c.34-.46,1.06.49,1.2.47s.89.46.84.86.74,0,.89.37a2.35,2.35,0,0,0,.2.43s.08-1.2-.09-1.38.32-.37.63-.34-.6-.55-.6-.55-.2-2.33-.2-3.39-.29-3.69-1-4.58-.83-.46-.69-.89.26-.17.26-.17a8.84,8.84,0,0,1,2.18,7.76,2.42,2.42,0,0,1-.14.67c-.09.11.29,0,.54-1.41a8.76,8.76,0,0,0-2.09-7.05,3.11,3.11,0,0,1-1.12-2s.52-.09.75.63.71,1,.83,1.44a2.84,2.84,0,0,0,.54.92,10.16,10.16,0,0,1-.71-1.9c0-.37-1-2-1.5-2s-.49-1-.49-1,4.28-1.73-2-2.19c0,0-.69-.34-.6-.52s4-.37,4,1a1.22,1.22,0,0,0,.14-.46c0-.2-2.7-1.55-3.87-1,0,0,7.12-1.24,6,1.38,0,0,1.46-1.87-2.76-2.5,0,0-1.92-.38-2.38,0,0,0,2.93-1.82,4.33-.75a3.2,3.2,0,0,0-1.17-3.4c-1.81-1.29-2.56-1.26-2.88-2.36s-1.95-1.35-3.7-1.67-1.87-.17-1.87-.17a2.6,2.6,0,0,0-2.75-.92s-1.44-.17-1.47.26c0,0-.51-3.37-2.29-3.86s-4.22-1.72-4.66-1.46c0,0-2.44-.9-2.84-.23,0,0,3.22.37,3.25,1.69,0,0,.11,1.27-.2,1.59,0,0-5.75-3.31-7.41-3.14s-3.79.09-4.68,1a10.87,10.87,0,0,1-2.7,2,19.68,19.68,0,0,0-3.16,1.27c-.43.4-1.49,1.61-1.35,2,0,0,2.1-2,3.27-2a19.64,19.64,0,0,0-2.24,2.39c-.54.83-1.78,2-2.92,2,0,0-3.08-.63-4,.4a5.72,5.72,0,0,1,4.19,0s.69.77.11.89-8.49,1.09-7.78,2.64a9,9,0,0,0,2.73,2.91s-4.65,3.11-4.36,4.52,1.29,1.24,1.29,1.24a22.12,22.12,0,0,0-.2,3.31s2.41-3.11,2.81-3.4a7.8,7.8,0,0,0,1.52-2.56,11.85,11.85,0,0,1,.75-2.22,5.61,5.61,0,0,1,1.95-2.76c1.21-.75,1.5-1.15,2.24-1.29a13,13,0,0,1,2-.15,8.87,8.87,0,0,1,8,.4,10.82,10.82,0,0,0,8.19,1s-5.17,2.39-5,3.14c0,0,3.33-2.51,4.88-2.56s2.7.17,3.13-.12a1,1,0,0,1,.8-.17s-2.26,2.65.15,4.6c0,0-1.06-1.61-.35-2.59,0,0,.46,4.35,1.41,5.82,0,0-1-5-.4-5.5s1.58,3.42,1.58,3.42,1.29,5.39,1.46,5.79.32.29.32.29-.69-5.61-.26-6.39c0,0,.11,3.77,1.26,3.91,0,0-1.35-3.51-.11-3.74,0,0-.29,4.06,1,4.69,0,0-.43-3.45.75-3.22a2.3,2.3,0,0,0,1.84-.32,9.33,9.33,0,0,0-.81,3.14A9.05,9.05,0,0,0,181.87,136.09Z"/><path id="나얼굴" class="cls-7" d="M180.18,143.09c-.08-.61,1.58-4.35,1.58-4.35a10.17,10.17,0,0,0,.11-2.65,9.05,9.05,0,0,1-.05-1.49,9.33,9.33,0,0,1,.81-3.14,2.3,2.3,0,0,1-1.84.32c-1.18-.23-.75,3.22-.75,3.22-1.32-.63-1-4.69-1-4.69-1.24.23.11,3.74.11,3.74-1.15-.14-1.26-3.91-1.26-3.91-.43.78.26,6.39.26,6.39s-.15.11-.32-.29-1.46-5.79-1.46-5.79-1-4-1.58-3.42.4,5.5.4,5.5c-.95-1.47-1.41-5.82-1.41-5.82-.71,1,.35,2.59.35,2.59-2.41-2-.15-4.6-.15-4.6a1,1,0,0,0-.8.17c-.43.29-1.58.06-3.13.12s-4.88,2.56-4.88,2.56c-.2-.75,5-3.14,5-3.14a10.82,10.82,0,0,1-8.19-1,8.87,8.87,0,0,0-8-.4,13,13,0,0,0-2,.15c-.74.14-1,.54-2.24,1.29a5.61,5.61,0,0,0-1.95,2.76,11.85,11.85,0,0,0-.75,2.22,7.8,7.8,0,0,1-1.52,2.56c-.4.29-2.81,3.4-2.81,3.4a19.1,19.1,0,0,0-5.06,8.29c-.09.35-.18.67-.28,1,0,0-2.43,6.51-2,8,0,0,4.07,4.42,5.26,5.33s4.09,3.54,6,5.25,3.75,3.06,3.83,3.23a8.14,8.14,0,0,1,5.28-.86,10.27,10.27,0,0,1,3.1-3.3c1.81-1.06,3.92-6.46,7.19-8.59,0,0,6.64-8.27,8.92-8.35a4.11,4.11,0,0,0,1.31-1.11c.26-.51,2.09-.08,2.39-.3S179.8,143.07,180.18,143.09Z"/><g id="경이옷"><path class="cls-12" d="M127.35,179.58c.12-3.34,3.91-8.81,3.91-8.81s3.79.17,5.4,2.59,3.9,9.44,6.37,13.12,5.63,8.35,5.92,10.48,1,9.09,1.14,10.36-4,5.64-4,5.64L138.49,215s-7.4.06-8.84-1.5-2-1.15-3-5.12-.63-5.76-1-11.63S127.35,179.58,127.35,179.58Z"/><g id="기린무"><path class="cls-13" d="M129.71,193.22a6.72,6.72,0,0,0,2.47,1.78h1.95l1.32.46h1.84s.4.75.29,1a3.84,3.84,0,0,1-.46.69l-1.32.05s-.58,1.33,0,1.79a2.25,2.25,0,0,0,1.83.4c.12-.17.52-.63.69-.4s1,1.38.75,1.73a1,1,0,0,1-1.09.57c-.58-.11-1.21,0-1.21.23s-.69.35.12.4a3.19,3.19,0,0,0,1.37-.05c.35-.12.35-.23.69-.06a.85.85,0,0,1,.41,1,1.7,1.7,0,0,1-1.1.7,5.05,5.05,0,0,1-2.24.51,18.53,18.53,0,0,1-2-.17,10.34,10.34,0,0,1-.8,1.21,3.71,3.71,0,0,1-1.72,1c-.41,0-.52-1.21-.52-1.39s.52.35.8-.4.58-.75.58-1.21-.4-.86-.58-1.61.12-.69-.57-1.44-1.49-.34-1.72-1.44A36.92,36.92,0,0,1,129.71,193.22Z"/><path class="cls-14" d="M133.67,196.73c-.23.23-.52.4-.69.05s-.24-.49,0-.68.27-.21.48-.21.36,0,.42.21a1.29,1.29,0,0,1,0,.49Z"/><path class="cls-14" d="M131.57,196.3c-.18.06-.47.06-.48,0A1.44,1.44,0,0,0,131,196c0-.13-.18-.24,0-.36a1.21,1.21,0,0,1,.52-.12.69.69,0,0,1,.2.38,1,1,0,0,1-.13.4Z"/><path class="cls-14" d="M131.87,197.59c.34,0,.7.08.71.27a6.81,6.81,0,0,1,0,.73c0,.09.13.3-.12.3a.8.8,0,0,1-.54-.2c-.08-.08-.16,0-.24-.23a2.19,2.19,0,0,1-.09-.47Z"/><path class="cls-14" d="M133.33,199.27c0-.11.62-.09.71.07s.43.58.38.67-.22.09-.33.12a4.56,4.56,0,0,1-.66,0,3.52,3.52,0,0,1-.14-.45C133.29,199.59,133.33,199.27,133.33,199.27Z"/><path class="cls-14" d="M132.8,200.63c.08,0,.6.06.6.25s.18.37-.05.49a1.11,1.11,0,0,1-.57.07.42.42,0,0,1-.24-.35,3,3,0,0,1,0-.42Z"/></g></g><path class="cls-4" d="M168,251.69c-1.29,1.08-1.55.91-2,1.64s-1.68,1.77-1.73,2.33a13.75,13.75,0,0,0,.82,2.76l1.64-1s0,.6.21,0,1.6-3,1.68-3.41A9.81,9.81,0,0,0,168,251.69Z"/><g id="나눈코입"><path class="cls-15" d="M160.56,145.44a3.84,3.84,0,0,1,1.18.11c.37.15.54.47.82.54a6.12,6.12,0,0,0,1.1.06,12,12,0,0,1,3.06.95,21.38,21.38,0,0,0,2.09,1.21.33.33,0,0,0,.43-.17s-.32.21-1.47-.91S162.48,144,160.56,145.44Z"/><path class="cls-15" d="M150.52,141.47s-.25-.73-.58-.73a2.36,2.36,0,0,1-1.14-.37c-.3-.22-1.68-.78-1.89-1a5.07,5.07,0,0,0-.74-.48,7.86,7.86,0,0,0-2.71-.39,9.38,9.38,0,0,1,3.86.31C148.67,139.44,150.76,139.68,150.52,141.47Z"/><path class="cls-15" d="M152.94,151.12c0,.38.6.67.74.7s.3.09.36-.06c0,0,.06-.3,0-.41s-.62-.44-.79-.35A1.69,1.69,0,0,1,152.94,151.12Z"/><path class="cls-15" d="M149.54,150.12c.19.13.3-.13.3-.3a1.31,1.31,0,0,0-.28-.62A1.19,1.19,0,0,0,149,149c-.08,0-.3.11-.28.23a.82.82,0,0,0,.22.36A2.54,2.54,0,0,0,149.54,150.12Z"/><path id="나입술" class="cls-16" d="M145,155.07a9.71,9.71,0,0,1,2.77-.37,1.68,1.68,0,0,1,1.21.8c.13.25,1,.29,1.26.28s.52-.15,1.09.39,2.2,2.24,2.46,2.34.94,1.1.94,1.1-1.29,3.29-3.41,3.46-6.09-1.71-6-3.54a12.84,12.84,0,0,0,.06-2.74,6.41,6.41,0,0,0-.35-1.67"/></g><g id="아기띠"><path id="아기띠-2" data-name="아기띠" class="cls-4" d="M191.33,144c0-.4-.69-.89-.84-.86s-.86-.93-1.2-.47a1.77,1.77,0,0,1-.84.61c-1.35,0-8.18.4-8.27-.2h0c-.38,0-1.19.67-1.49.88s-2.13-.21-2.39.3a4.11,4.11,0,0,1-1.31,1.11c-2.28.08-8.92,8.35-8.92,8.35-3.27,2.13-5.38,7.53-7.19,8.59a10.27,10.27,0,0,0-3.1,3.3,8.14,8.14,0,0,0-5.28.86c-.08-.17-1.87-1.53-3.83-3.23s-4.87-4.34-6-5.25-5.26-5.33-5.26-5.33-8.18-8.29-8.7-8.63,1,11.91,1,11.91,1.55,9.58,1.42,11.4a10.17,10.17,0,0,0,1,4.18s4.31,7,4.35,8.25c0,0-.77.73-.56,1.29s.48,2.68,1.25,3.63,3.58,7,4.22,7.55a4.08,4.08,0,0,1,1,.95c.26.35-.64.3,0,1.25a32.43,32.43,0,0,1,1.64,3.07c.26.47-.09.34.43,1.77a22,22,0,0,0,1,2.46A3.47,3.47,0,0,1,144,203a15.88,15.88,0,0,0,.95,2.11,18.14,18.14,0,0,1,.95,2.25,6.1,6.1,0,0,0,.13.64s-5,2.68-5.43,2.9a14.35,14.35,0,0,0-1.72.64c-.39.26-1.81.43-2.16.61s-.47.43-.73.95-.3.21-.3.21-2.93-.64-3.45-.69-.9,1.82-.51,2.64-.43,6.6-.26,6.77a11.19,11.19,0,0,0,2.28,1.94c.73.31,2.2,1.08,4.78,2a70.27,70.27,0,0,1,8.92,4c.9.7,8.27,3.63,8.83,4s.08,2.2,3,5.57c0,0,1.34,2.76,1.94,3.67s1.47,1.51,1.64,2.15a22.14,22.14,0,0,0,2.15,3.72c.65.9,1.12,1,1.47,2.2a7.64,7.64,0,0,0,.86,1.94c.08.22.56,1.68.6,1.94s3.06-3.67,4.22-4.62.43-.56,1.25-1.2a3.35,3.35,0,0,0,1.21-2c.21-.73.34-1.94.6-2.76s1.08-2.77,1.16-3,.65-1.53.78-1.94a5,5,0,0,1,2-3.37c1.81-1.32,3.41-1.62,4.63-.93s2.16,1.17,1.7,4l-.21.36a3,3,0,0,1,1.55,0,14.54,14.54,0,0,1,1.53.5,11.22,11.22,0,0,0,2,.63,14,14,0,0,0,1.74.12c.33,0,.24,0,1.66-.56A63.16,63.16,0,0,0,201,237c1-.69,3.28-2.07,4.37-2.73s6.63-3.22,7.38-3.6,1.69-2,2.15-2.93,2.81-6.53,3-7.14,0,1,.46-1.12.37-2.68-.06-3.74A45.19,45.19,0,0,0,215.9,211c-.54-.83-.69-.75-1.81-2.45s-1.66-3-2.58-4.14-3.13-5.26-4.22-6.65a24.57,24.57,0,0,0-2.1-2.76c-1.12-1.15-1.43-2.21-2.15-2.88s-1.55-1.15-1.55-2.07-.69-4.11-.8-5a8.24,8.24,0,0,1-.35-2.07c-.09-1.64-.75-4.66-.52-5.5s.64-1.06.43-2.3a5.27,5.27,0,0,0-1.4-2.5c-.29-.35-.49,0-.92-1.56a31.36,31.36,0,0,0-2.18-4.46c-.09-.28-4.28-6-4.86-6.56a7.88,7.88,0,0,1-1.37-1.67,11,11,0,0,0-2.21-1.66l-.44-.26s2.79-8,3.19-8.46a8.35,8.35,0,0,0,.95-2.13c.17-.52.53-1.34.56-1.41s-.07-.24-.1-.26-.15-.12-.15-.18A.28.28,0,0,1,191.33,144Z"/><path class="cls-17" d="M149.52,167.32s-14.36,11.85-14.47,12.43a6.48,6.48,0,0,0,.8,2.3s1.38,4,1.84,5.3,3.22,4.71,3.68,6,1.26,3.8,1.72,5.07,2.64,6.21,3,7.36a13.74,13.74,0,0,0,.69,2,49.94,49.94,0,0,0,3.91,5.52c1.61,2.08,8.15,10.82,8.84,12s3.45,5.17,4.37,6.56,2.18,5.64,3,6.56,2.41,0,2.41,0,4.6-3.46,4.71-3.8,1.61-2.53,1.84-2.88"/><path class="cls-17" d="M177,232.93a20.16,20.16,0,0,1-2.3,4c-.92,1-4.36,3.68-5,3.68s-1.38.11-1.26.46,1.37,2.53,2.18,4a8.71,8.71,0,0,1,1.15,2.88"/><path class="cls-17" d="M165.83,238.34s-10.91-5.18-11.6-5.3-14.13-5.87-15.28-6.56-4.59-2-5.39-2.42-3-1.84-3-1.84,4.94-8.29,5.17-8.86,6.43-3.34,7.58-3.8a35,35,0,0,0,3.44-1.84"/></g><g id="매쉬띠"><path id="매쉬띠-2" data-name="매쉬띠" class="cls-18" d="M186.87,156.53l.44.26a11,11,0,0,1,2.21,1.66,7.88,7.88,0,0,0,1.37,1.67c.58.58,4.77,6.28,4.86,6.56a31.36,31.36,0,0,1,2.18,4.46c.43,1.59.63,1.21.92,1.56a5.27,5.27,0,0,1,1.4,2.5c.21,1.24-.2,1.47-.43,2.3s.43,3.86.52,5.5a8.24,8.24,0,0,0,.35,2.07c.11.84.8,4,.8,5s.83,1.41,1.55,2.07,1,1.73,2.15,2.88a24.57,24.57,0,0,1,2.1,2.76c1.09,1.39,3.3,5.47,4.22,6.65s1.46,2.45,2.58,4.14,1.27,1.62,1.81,2.45a45.19,45.19,0,0,1,2.33,4.78c.43,1.06.52,1.64.06,3.74s-.32.52-.46,1.12-2.5,6.19-3,7.14-1.41,2.56-2.15,2.93-6.29,2.94-7.38,3.6-3.33,2-4.37,2.73a63.16,63.16,0,0,1-7.14,3.41c-1.42.52-1.33.56-1.66.56a14,14,0,0,1-1.74-.12,11.22,11.22,0,0,1-2-.63,14.54,14.54,0,0,0-1.53-.5,3,3,0,0,0-1.55,0l.21-.36c.46-2.87-.47-3.35-1.7-4s-2.82-.39-4.63.93c0,0-1.74-3-1.44-4s-1.25-1.69-1.33-1.86a3.31,3.31,0,0,1-.05-1.9,10.09,10.09,0,0,0,.56-3.45c0-1.47,0-1.25,0-3.33a15.78,15.78,0,0,1,.48-4.27,63.61,63.61,0,0,0,.6-7.77,8.59,8.59,0,0,0-.35-1.34c-.13-.52-.51-.65-.13-1.08s.78-.21.69-.64-.08-.78-.3-1-.08-.77-.6-1.25a6.89,6.89,0,0,1-1-1.34l-.31-.9s.35-.61.69-.35a1.37,1.37,0,0,1-.64-1.21v-1c0-.22.64.64-.35-.39s-.82-2.94-.82-3.67,0-.82.26-.78-.34-.9-.34-.9,0-.52,0-.95a4.58,4.58,0,0,0-.69-1.47,3.74,3.74,0,0,1-.78-1c-.17-.44-.26.17-.21-.82s-.26-1.08-.26-1.86,0-1.12,0-1.55-1.64-2.08-1.64-2.51-.08-1.42-.08-1.42a2.42,2.42,0,0,1-.13-1c0-.82-.69-1.47-.95-1.94s-.9-1.81-1.29-2.59-.6-1.6-.91-2.33-1.2.69-1.33-1.34a4.79,4.79,0,0,0-1.08-3s-4.3-.34-5.08-.6-.47-1.77-.39-2.16a11.38,11.38,0,0,1,2-2.37c.38-.31,1.42-1.69,2.58-1.64s3.36.21,3.36.21,6.76-1.68,7.58-1.9,3.27-.13,3.92-.47,2.37-.91,3-1.25,2.46-.78,2.89-1.08.9-.44,1.07-.87a2.13,2.13,0,0,0,.24-.71,1.61,1.61,0,0,0,0-.47C186.62,156.55,186.87,156.53,186.87,156.53Z"/><path class="cls-17" d="M178.43,190a18.37,18.37,0,0,1,4.48.61c.86.17,8.87.17,10-.52"/><path class="cls-17" d="M182.91,201.79c1.55.09,6.38,2.68,7.5,3.71s4,4.84,6.28,6.31,5.09,3.45,5.09,3.45"/><path class="cls-17" d="M182.83,209.13c.51.78.08,2.42,1.72,4.83s5.25,6.22,7.32,7,7.49,2.07,9.65,2.93,9,1.9,10.16,2.68"/><path class="cls-17" d="M201.2,189.53s-5.17-6.21-6-7.59a34.47,34.47,0,0,0-6.78-6.34c-1-.46-5.51-3.91-5.51-3.91s-6-5.75-6.78-6.1,2.19.12,3.91-.57,3.22-1.5,3.22-1.5"/></g><g id="손"><path id="아기띠-3" data-name="아기띠" class="cls-7" d="M168,255.14c0,.26,3.06-3.67,4.22-4.62s.43-.56,1.25-1.2a3.35,3.35,0,0,0,1.21-2c.21-.73.34-1.94.6-2.76s1.08-2.77,1.16-3,.65-1.53.78-1.94a5,5,0,0,1,2-3.37c1.81-1.32,3.41-1.62,4.63-.93s2.16,1.17,1.7,4l-.21.36a17.88,17.88,0,0,0-.75,3,13.7,13.7,0,0,1-.52,3.41c-.3.73-.91,1.08-1,1.51a5.72,5.72,0,0,0-.25,1.73c0,.82-.43,2.11.21,2.8a8.07,8.07,0,0,1,1.16,1.77,18.37,18.37,0,0,1,.78,3.89c-.13.78-.34,4.53-.34,5.22a9,9,0,0,0,.34,2.29c.17.47.26.34.09,1.64a4.81,4.81,0,0,1-1.12,2.72,6.81,6.81,0,0,0-.78.82l-3,1.73s-11.54-5.92-11.59-6.18-3.61-5.91-3.44-6.56a12.45,12.45,0,0,1,1.76-2.46,13.2,13.2,0,0,1,.82-1.55A1.18,1.18,0,0,0,168,255.14Z"/></g><path id="잠바1" class="cls-2" d="M79.2,71.78c-.36-.31,1.37-1.74,2.16-3.39l0,0s.31-4.42-.26-4.65c0,0,.17,2.13-.23,2.25,0,0-.21-.81-.43-1.81,0,0-.83-1.53-2-.55a23.61,23.61,0,0,1-1.84-1.87s-1.49-.55-2.24,0c0,0-2.09-.25-2.55.18A3.52,3.52,0,0,0,69,61.59s-.77,1.76-1.12,1.79c0,0-5.37,3.77-7.46,9.06,0,0-1.15,4.78-.92,6.22,0,0-1.18,5.21-1,6.16s2.26,3.1,2.64,3.28c0,0-.35,2.24,2,5.55a3.47,3.47,0,0,1,.44,3s-.27,1.88,6.19,9.51a21.49,21.49,0,0,1,2.16,3.41s.16,1.08,4.87,4.76a36.7,36.7,0,0,0,9.85,8.37s5,3.53,8.26,5.5a119.21,119.21,0,0,1,9.54,30s4.71,14.51,5.86,15.66c.31.31-.16,1.91.21,4,.48,2.78,2.43,25.34,2.32,26.15s.69,9.55.86,10.13-.29,4.43,0,8.11,1.32,7.83,1,8.86c0,0,4.14,1.33,8,8.29,0,0,6.09,3.86,8.21,6.56,0,0,.87-2.13.64-7.6,0,0,2.41-9.84,1.26-19.1,0,0-3.27-30.91-2-35.63s-1.32-25.15-2.58-31.08-2.3-20.66-2.3-20.66-10.86-3.11-12.18-2.53c0,0-7.17-14-8.55-14.16a91.26,91.26,0,0,0-4.08-10.59S94.85,85.07,79.2,71.78Z"/><path id="뒷잠선" class="cls-11" d="M122.79,115.38a66.5,66.5,0,0,1,6.72,4.31c1.38,1.12,8.27,2.25,8.27,2.25h5.51l2.67-.61a17.79,17.79,0,0,1,.69-4.14"/><path class="cls-2" d="M44.92,287.26c-3.1-4.41-7.06-6.48-9.39-9.59S29.16,271.2,26.75,265s-5.6-13.2-6.21-15.62-6.28-15.89-6.46-20.72-5.42-12-5.17-26.5a85.06,85.06,0,0,1-1.37-13.21c.08-5.27-.86-11.74-.61-15.28s1.47-17,2.24-19.51,5.6-23.4,6.29-25.9,2.33-7.94,2.41-9.07-.43-1.55,2.42-4.74c2-2.31,4.76-6.39,6.67-8.82-.51.49-1.09,1.06-1.77,1.74,0,0-4,6-6.37,7.59S8.66,135.75,7.36,140.33s-3,5.95-3.7,8.89,1,6.39.86,9.41.35,12.51,1,14.85-.52,10.7-1.3,14.84S3.32,192,3.57,196s1,5.35.26,8.54-2.41,19.77-2.41,22.19-.26.35-.6,6.13S.65,239,.47,244.27,0,251.34.22,255.92s-.09,20.63,0,23.83.25,1.46.51,6.47,1,5.61,1,9.67.43,4.75,1,8.2a9.47,9.47,0,0,1,.12,2.85H67.15C62.62,303.29,47.55,291,44.92,287.26Z"/><path class="cls-2" d="M39.92,102.69s14.91,4.66,15.6,5.18a1.5,1.5,0,0,0,1.14.4s7.47,2.3,9.77,2c0,0,8.55,5.75,12.46,14.61,0,0-.06,7.83,1,10a94.63,94.63,0,0,0,1.55,20.26s2.76.23,11,19.91c0,0,3.67,6.27,2.7,12.37s5.74,16.46,5.74,16.46,1.78,9.61.92,17.5c0,0-.12,2.88,1.2,3.28,0,0,.75,6.68,1.5,7.42s-1.38,3.63-1.38,3.63a9.12,9.12,0,0,1,7.29,1.76c3.66,2.71,10.17,6.69,13.57,6.73s3.92,0,4.35.86a8.09,8.09,0,0,1,2.49,1l0-.08c-2.12-2.7-8.21-6.56-8.21-6.56-3.9-7-8-8.29-8-8.29.29-1-.74-5.18-1-8.86s.17-7.54,0-8.11-1-9.33-.86-10.13-1.84-23.37-2.32-26.15c-.37-2.1.1-3.7-.21-4-1.15-1.15-5.86-15.66-5.86-15.66a119.21,119.21,0,0,0-9.54-30c-3.22-2-8.26-5.5-8.26-5.5a36.7,36.7,0,0,1-9.85-8.37c-4.71-3.68-4.87-4.76-4.87-4.76a21.49,21.49,0,0,0-2.16-3.41c-6.46-7.63-6.19-9.51-6.19-9.51a3.47,3.47,0,0,0-.44-3,10.28,10.28,0,0,1-2-4.51s-3.48-.07-4.66,1.29c-.39.45-1.6.45-3.06.28a27.81,27.81,0,0,0-5.81,2.48c-2,1.35-5.45,2.16-5.74,2.36s-9.33,4.93-11.3,7c1.58-1.06,3.44-2.37,4-2.73C35.27,99.32,39.92,102.69,39.92,102.69Z"/><path class="cls-2" d="M29.65,103.14l.56-.36A2.15,2.15,0,0,0,29.65,103.14Z"/><path class="cls-19" d="M174.83,306.94c.63-.51,1.5-1.33,3-2.59,2.67-2.24,3.62-2.33,6.46-3.8s-.26-4.49-.26-4.49c.41-.4.82-.86,1.27-1.38,2.18-2.53,3.44-4.26,2.92-5.75s-3.5-13.07-3.63-14-1.28-4.54-3.11-6a32.63,32.63,0,0,1-3.85-3.46c-2.9-2.76-14.39-11.42-15.16-11.25s-9.62-2.5-10.67-2c-1.34.64-2.33,1.44-3.14,1.14a17.5,17.5,0,0,0-5.69-.89,3.71,3.71,0,0,1-2.29-.55c-2.87-2-5-1.61-5-1.61a3.44,3.44,0,0,0-2.3-1.24,5.94,5.94,0,0,0-2.5-3l-28.55,60.87Z"/><path class="cls-19" d="M28.73,103.72A8.77,8.77,0,0,0,27,105.61c1.4-1.37,2.22-2.09,2.69-2.47Z"/><path class="cls-19" d="M30.28,102.86a1.93,1.93,0,0,1,.24-.29l-.31.21C30.33,102.74,30.28,102.86,30.28,102.86Z"/><path class="cls-19" d="M17.87,119.17c-.08,1.13-1.72,6.57-2.41,9.07S10,151.63,9.17,154.14s-2,16-2.24,19.51.69,10,.61,15.28a85.06,85.06,0,0,0,1.37,13.21c-.25,14.5,5,21.67,5.17,26.5s5.86,18.3,6.46,20.72,3.79,9.41,6.21,15.62,6.46,9.59,8.78,12.69,6.29,5.18,9.39,9.59c2.63,3.73,17.7,16,22.23,19.68h35.18l28.55-60.87a8.09,8.09,0,0,0-2.49-1c-.43-.82-.95-.82-4.35-.86s-9.91-4-13.57-6.73a9.12,9.12,0,0,0-7.29-1.76s2.12-2.88,1.38-3.63-1.5-7.42-1.5-7.42c-1.32-.4-1.2-3.28-1.2-3.28.86-7.89-.92-17.5-.92-17.5S94.22,193.5,95.2,187.4,92.5,175,92.5,175c-8.27-19.68-11-19.91-11-19.91a94.63,94.63,0,0,1-1.55-20.26c-1.09-2.19-1-10-1-10C75,116,66.43,110.23,66.43,110.23c-2.3.34-9.77-2-9.77-2a1.5,1.5,0,0,1-1.14-.4c-.69-.52-15.6-5.18-15.6-5.18s-4.65-3.37-5.42-2.85c-.54.36-2.4,1.67-4,2.73a1.93,1.93,0,0,0-.24.29s0-.12-.07-.08l-.56.36c-.47.38-1.29,1.1-2.69,2.47-1.91,2.43-4.63,6.51-6.67,8.82C17.44,117.62,18,118.05,17.87,119.17Z"/></g></g></svg>