<svg xmlns="http://www.w3.org/2000/svg" viewBox="0 0 11.4 27.22"><defs><style>.cls-1{fill:#fff;}</style></defs><title>Asset 15</title><g id="Layer_2" data-name="Layer 2"><g id="Layer_1-2" data-name="Layer 1"><path class="cls-1" d="M11.11,23.41,9.19,21.23,7.34,17.18V14.91l2.31-.71a1.2,1.2,0,0,0,.74-.69,1.17,1.17,0,0,0-.06-1L7.79,7.8a4.08,4.08,0,1,0-2.94.11l-.5,2.85-.91-.82A1.17,1.17,0,0,0,1.78,10a1.19,1.19,0,0,0,.08,1.67l2.28,2.06a1.18,1.18,0,0,0-.12,1,1.16,1.16,0,0,0,1,.8v.91L1,17a1.18,1.18,0,0,0-.86.61,1.17,1.17,0,0,0,0,1.06l1.18,2.5-.76.5a1.19,1.19,0,0,0-.34,1.63,1.18,1.18,0,0,0,1,.53,1.16,1.16,0,0,0,.64-.19l1.62-1.07a1.17,1.17,0,0,0,.42-1.48l-.94-2,2.54-.38,1.66,3.64a1.32,1.32,0,0,0,.19.29l1.74,2V26a1.18,1.18,0,1,0,2.35,0V24.19A1.23,1.23,0,0,0,11.11,23.41Zm-3.77-11v-.52l.24.45Z"/></g></g></svg>