<svg xmlns="http://www.w3.org/2000/svg" viewBox="0 0 24.03 17.37"><defs><style>.cls-1{fill:#9bc763;}.cls-2{fill:#e4eecf;}</style></defs><title>Asset 6</title><g id="Layer_2" data-name="Layer 2"><g id="Layer_1-2" data-name="Layer 1"><path class="cls-1" d="M15.37,0A8.68,8.68,0,0,0,6.76,7.67l8.61,1-2.89,8.18A8.65,8.65,0,0,0,24,8.69,8.68,8.68,0,0,0,15.37,0Z"/><circle class="cls-2" cx="17.02" cy="5.72" r="1.62"/><path class="cls-1" d="M4.47,9.91A2.52,2.52,0,0,0,3.33,8.65a2.9,2.9,0,0,0-.68-.24h0l-.11.64-.73,4.13A1.89,1.89,0,0,0,1.33,13c-.65-.11-1.24.16-1.32.61s.38.92,1,1,1.22-.14,1.32-.58h0l.86-4.82a2.48,2.48,0,0,1,1.16,1.28,2.73,2.73,0,0,1,.22,1.12A2.92,2.92,0,0,0,4.47,9.91Z"/><path class="cls-1" d="M6.39,14.37a1.15,1.15,0,0,0-1.11.45l-.64-.88a2.2,2.2,0,0,1,2.12-.69c1,.29,1.16,1.38,1.83,1.58.34.11.7-.05,1.1-.44l.64.88a2.22,2.22,0,0,1-2.1.69C7.23,15.66,7.06,14.58,6.39,14.37Z"/></g></g></svg>