<svg xmlns="http://www.w3.org/2000/svg" viewBox="0 0 34.92 35"><defs><style>.cls-1{fill:#fff;}</style></defs><title>Asset 12</title><g id="Layer_2" data-name="Layer 2"><g id="Layer_1-2" data-name="Layer 1"><path class="cls-1" d="M27.1,35H7.83A7.84,7.84,0,0,1,0,27.16V7.84A7.84,7.84,0,0,1,7.83,0H27.1a7.84,7.84,0,0,1,7.82,7.84V27.16A7.84,7.84,0,0,1,27.1,35ZM7.83,1.7A6.15,6.15,0,0,0,1.7,7.84V27.16A6.15,6.15,0,0,0,7.83,33.3H27.1a6.15,6.15,0,0,0,6.13-6.14V7.84A6.15,6.15,0,0,0,27.1,1.7Z"/><path class="cls-1" d="M25.56,13.45a8.1,8.1,0,1,0-15.14,4h0l7,12.2,7-12.2h0A8.1,8.1,0,0,0,25.56,13.45Zm-8.1,4.85a4.85,4.85,0,1,1,4.84-4.85A4.85,4.85,0,0,1,17.46,18.3Z"/></g></g></svg>